<svg width="181" height="52" viewBox="0 0 181 52" fill="none" xmlns="http://www.w3.org/2000/svg">
<path d="M76.4062 29.5352C76.4062 29.2305 76.3594 28.957 76.2656 28.7148C76.1797 28.4648 76.0156 28.2383 75.7734 28.0352C75.5312 27.8242 75.1914 27.6172 74.7539 27.4141C74.3164 27.2109 73.75 27 73.0547 26.7812C72.2812 26.5312 71.5469 26.25 70.8516 25.9375C70.1641 25.625 69.5547 25.2617 69.0234 24.8477C68.5 24.4258 68.0859 23.9375 67.7812 23.3828C67.4844 22.8281 67.3359 22.1836 67.3359 21.4492C67.3359 20.7383 67.4922 20.0938 67.8047 19.5156C68.1172 18.9297 68.5547 18.4297 69.1172 18.0156C69.6797 17.5938 70.3438 17.2695 71.1094 17.043C71.8828 16.8164 72.7305 16.7031 73.6523 16.7031C74.9102 16.7031 76.0078 16.9297 76.9453 17.3828C77.8828 17.8359 78.6094 18.457 79.125 19.2461C79.6484 20.0352 79.9102 20.9375 79.9102 21.9531H76.418C76.418 21.4531 76.3125 21.0156 76.1016 20.6406C75.8984 20.2578 75.5859 19.957 75.1641 19.7383C74.75 19.5195 74.2266 19.4102 73.5938 19.4102C72.9844 19.4102 72.4766 19.5039 72.0703 19.6914C71.6641 19.8711 71.3594 20.1172 71.1562 20.4297C70.9531 20.7344 70.8516 21.0781 70.8516 21.4609C70.8516 21.75 70.9219 22.0117 71.0625 22.2461C71.2109 22.4805 71.4297 22.6992 71.7188 22.9023C72.0078 23.1055 72.3633 23.2969 72.7852 23.4766C73.207 23.6562 73.6953 23.832 74.25 24.0039C75.1797 24.2852 75.9961 24.6016 76.6992 24.9531C77.4102 25.3047 78.0039 25.6992 78.4805 26.1367C78.957 26.5742 79.3164 27.0703 79.5586 27.625C79.8008 28.1797 79.9219 28.8086 79.9219 29.5117C79.9219 30.2539 79.7773 30.918 79.4883 31.5039C79.1992 32.0898 78.7812 32.5859 78.2344 32.9922C77.6875 33.3984 77.0352 33.707 76.2773 33.918C75.5195 34.1289 74.6719 34.2344 73.7344 34.2344C72.8906 34.2344 72.0586 34.125 71.2383 33.9062C70.418 33.6797 69.6719 33.3398 69 32.8867C68.3359 32.4336 67.8047 31.8555 67.4062 31.1523C67.0078 30.4492 66.8086 29.6172 66.8086 28.6562H70.3359C70.3359 29.1875 70.418 29.6367 70.582 30.0039C70.7461 30.3711 70.9766 30.668 71.2734 30.8945C71.5781 31.1211 71.9375 31.2852 72.3516 31.3867C72.7734 31.4883 73.2344 31.5391 73.7344 31.5391C74.3438 31.5391 74.8438 31.4531 75.2344 31.2812C75.6328 31.1094 75.9258 30.8711 76.1133 30.5664C76.3086 30.2617 76.4062 29.918 76.4062 29.5352ZM85.4766 15.9883V34H82.1016V15.9883H85.4766ZM93.4688 21.3203L87.9609 27.6016L85.0078 30.5898L83.7773 28.1523L86.1211 25.1758L89.4141 21.3203H93.4688ZM89.9648 34L86.2148 28.1406L88.5469 26.1016L93.8555 34H89.9648ZM98.4844 21.3203V34H95.0977V21.3203H98.4844ZM94.8867 18.0156C94.8867 17.5234 95.0586 17.1172 95.4023 16.7969C95.7461 16.4766 96.207 16.3164 96.7852 16.3164C97.3555 16.3164 97.8125 16.4766 98.1562 16.7969C98.5078 17.1172 98.6836 17.5234 98.6836 18.0156C98.6836 18.5078 98.5078 18.9141 98.1562 19.2344C97.8125 19.5547 97.3555 19.7148 96.7852 19.7148C96.207 19.7148 95.7461 19.5547 95.4023 19.2344C95.0586 18.9141 94.8867 18.5078 94.8867 18.0156ZM104.836 16V34H101.449V16H104.836ZM111.188 16V34H107.801V16H111.188ZM123.07 29.5352C123.07 29.2305 123.023 28.957 122.93 28.7148C122.844 28.4648 122.68 28.2383 122.438 28.0352C122.195 27.8242 121.855 27.6172 121.418 27.4141C120.98 27.2109 120.414 27 119.719 26.7812C118.945 26.5312 118.211 26.25 117.516 25.9375C116.828 25.625 116.219 25.2617 115.688 24.8477C115.164 24.4258 114.75 23.9375 114.445 23.3828C114.148 22.8281 114 22.1836 114 21.4492C114 20.7383 114.156 20.0938 114.469 19.5156C114.781 18.9297 115.219 18.4297 115.781 18.0156C116.344 17.5938 117.008 17.2695 117.773 17.043C118.547 16.8164 119.395 16.7031 120.316 16.7031C121.574 16.7031 122.672 16.9297 123.609 17.3828C124.547 17.8359 125.273 18.457 125.789 19.2461C126.312 20.0352 126.574 20.9375 126.574 21.9531H123.082C123.082 21.4531 122.977 21.0156 122.766 20.6406C122.562 20.2578 122.25 19.957 121.828 19.7383C121.414 19.5195 120.891 19.4102 120.258 19.4102C119.648 19.4102 119.141 19.5039 118.734 19.6914C118.328 19.8711 118.023 20.1172 117.82 20.4297C117.617 20.7344 117.516 21.0781 117.516 21.4609C117.516 21.75 117.586 22.0117 117.727 22.2461C117.875 22.4805 118.094 22.6992 118.383 22.9023C118.672 23.1055 119.027 23.2969 119.449 23.4766C119.871 23.6562 120.359 23.832 120.914 24.0039C121.844 24.2852 122.66 24.6016 123.363 24.9531C124.074 25.3047 124.668 25.6992 125.145 26.1367C125.621 26.5742 125.98 27.0703 126.223 27.625C126.465 28.1797 126.586 28.8086 126.586 29.5117C126.586 30.2539 126.441 30.918 126.152 31.5039C125.863 32.0898 125.445 32.5859 124.898 32.9922C124.352 33.3984 123.699 33.707 122.941 33.918C122.184 34.1289 121.336 34.2344 120.398 34.2344C119.555 34.2344 118.723 34.125 117.902 33.9062C117.082 33.6797 116.336 33.3398 115.664 32.8867C115 32.4336 114.469 31.8555 114.07 31.1523C113.672 30.4492 113.473 29.6172 113.473 28.6562H117C117 29.1875 117.082 29.6367 117.246 30.0039C117.41 30.3711 117.641 30.668 117.938 30.8945C118.242 31.1211 118.602 31.2852 119.016 31.3867C119.438 31.4883 119.898 31.5391 120.398 31.5391C121.008 31.5391 121.508 31.4531 121.898 31.2812C122.297 31.1094 122.59 30.8711 122.777 30.5664C122.973 30.2617 123.07 29.918 123.07 29.5352ZM132.527 32.5703L135.891 21.3203H139.512L134.414 35.9102C134.305 36.2305 134.156 36.5742 133.969 36.9414C133.789 37.3086 133.543 37.6562 133.23 37.9844C132.926 38.3203 132.539 38.5938 132.07 38.8047C131.609 39.0156 131.043 39.1211 130.371 39.1211C130.051 39.1211 129.789 39.1016 129.586 39.0625C129.383 39.0234 129.141 38.9688 128.859 38.8984V36.4258C128.945 36.4258 129.035 36.4258 129.129 36.4258C129.223 36.4336 129.312 36.4375 129.398 36.4375C129.844 36.4375 130.207 36.3867 130.488 36.2852C130.77 36.1836 130.996 36.0273 131.168 35.8164C131.34 35.6133 131.477 35.3477 131.578 35.0195L132.527 32.5703ZM131.121 21.3203L133.875 30.5078L134.355 34.082L132.059 34.3281L127.5 21.3203H131.121ZM144.164 24.0273V34H140.789V21.3203H143.953L144.164 24.0273ZM143.672 27.2148H142.758C142.758 26.2773 142.879 25.4336 143.121 24.6836C143.363 23.9258 143.703 23.2812 144.141 22.75C144.578 22.2109 145.098 21.8008 145.699 21.5195C146.309 21.2305 146.988 21.0859 147.738 21.0859C148.332 21.0859 148.875 21.1719 149.367 21.3438C149.859 21.5156 150.281 21.7891 150.633 22.1641C150.992 22.5391 151.266 23.0352 151.453 23.6523C151.648 24.2695 151.746 25.0234 151.746 25.9141V34H148.348V25.9023C148.348 25.3398 148.27 24.9023 148.113 24.5898C147.957 24.2773 147.727 24.0586 147.422 23.9336C147.125 23.8008 146.758 23.7344 146.32 23.7344C145.867 23.7344 145.473 23.8242 145.137 24.0039C144.809 24.1836 144.535 24.4336 144.316 24.7539C144.105 25.0664 143.945 25.4336 143.836 25.8555C143.727 26.2773 143.672 26.7305 143.672 27.2148ZM159.551 31.5977C159.965 31.5977 160.332 31.5195 160.652 31.3633C160.973 31.1992 161.223 30.9727 161.402 30.6836C161.59 30.3867 161.688 30.0391 161.695 29.6406H164.871C164.863 30.5312 164.625 31.3242 164.156 32.0195C163.688 32.707 163.059 33.25 162.27 33.6484C161.48 34.0391 160.598 34.2344 159.621 34.2344C158.637 34.2344 157.777 34.0703 157.043 33.7422C156.316 33.4141 155.711 32.9609 155.227 32.3828C154.742 31.7969 154.379 31.1172 154.137 30.3438C153.895 29.5625 153.773 28.7266 153.773 27.8359V27.4961C153.773 26.5977 153.895 25.7617 154.137 24.9883C154.379 24.207 154.742 23.5273 155.227 22.9492C155.711 22.3633 156.316 21.9062 157.043 21.5781C157.77 21.25 158.621 21.0859 159.598 21.0859C160.637 21.0859 161.547 21.2852 162.328 21.6836C163.117 22.082 163.734 22.6523 164.18 23.3945C164.633 24.1289 164.863 25 164.871 26.0078H161.695C161.688 25.5859 161.598 25.2031 161.426 24.8594C161.262 24.5156 161.02 24.2422 160.699 24.0391C160.387 23.8281 160 23.7227 159.539 23.7227C159.047 23.7227 158.645 23.8281 158.332 24.0391C158.02 24.2422 157.777 24.5234 157.605 24.8828C157.434 25.2344 157.312 25.6367 157.242 26.0898C157.18 26.5352 157.148 27.0039 157.148 27.4961V27.8359C157.148 28.3281 157.18 28.8008 157.242 29.2539C157.305 29.707 157.422 30.1094 157.594 30.4609C157.773 30.8125 158.02 31.0898 158.332 31.293C158.645 31.4961 159.051 31.5977 159.551 31.5977Z" fill="#1D1D1D"/>
<path d="M29.343 10.6501L46.1414 0.780396V9.36453L29.343 10.6501Z" fill="#B8E8F2"/>
<path d="M29.343 10.6501L49.723 3.09448V9.2157L29.343 10.6501Z" fill="#88CFE5"/>
<path d="M29.343 10.6501L7.5105 0V8.34957L29.343 10.6501Z" fill="#B8E8F2"/>
<path d="M29.343 10.6501L2.90942 1.92615V7.8128L29.343 10.6501Z" fill="#88CFE5"/>
<path d="M29.3791 51.8476L0.0315758 46.1685L0 4.96191L29.3475 10.6456L29.3791 51.8476Z" fill="#472758"/>
<path d="M58.7943 34.0298C58.7943 41.3193 53.0746 47.197 45.997 48.5773L29.3475 51.8161L29.343 10.6501L44.8603 7.63237C51.7664 6.28813 57.3779 9.84268 57.3779 16.9608C57.3779 20.371 56.0743 23.3301 53.9271 25.6893C56.8682 27.0515 58.7898 29.8528 58.7943 34.0298ZM38.4053 17.7096V24.9991L44.8603 23.7406C46.8992 23.3436 48.3156 21.5393 48.3156 19.4237C48.3156 17.3081 46.9579 16.0451 44.8603 16.4511L38.4053 17.7096ZM49.732 35.0854C49.732 32.7938 48.2615 31.4316 45.9925 31.8736L38.4053 33.3487V41.2291L45.9925 39.7541C48.2615 39.3165 49.732 37.3814 49.732 35.0854Z" fill="#4D2C5E"/>
</svg>
