<svg xmlns="http://www.w3.org/2000/svg" viewBox="0 0 48 48" id="subscription"><path fill="#42a5f5" d="M28 38h-8a2 2 0 0 1 0-4h8a2 2 0 0 1 0 4Z"></path><path fill="#424242" d="M18 22a1 1 0 0 1-2 0 1 1 0 0 1 2 0zm0 4a1 1 0 0 1-2 0 1 1 0 0 1 2 0zm0 4a1 1 0 0 1-2 0 1 1 0 0 1 2 0zM6 25a1 1 0 0 1-2 0 1 1 0 0 1 2 0zm0 4a1 1 0 0 1-2 0 1 1 0 0 1 2 0zm0 4a1 1 0 0 1-2 0 1 1 0 0 1 2 0zm25-10H21a1 1 0 0 1 0-2h10a1 1 0 0 1 0 2zm0 4H21a1 1 0 0 1 0-2h10a1 1 0 0 1 0 2zm0 4H21a1 1 0 0 1 0-2h10a1 1 0 0 1 0 2z"></path><rect width="16" height="8" x="16" y="10" fill="#42a5f5" rx="1"></rect><rect width="9" height="8" x="35" y="13" fill="#42a5f5" rx="1"></rect><rect width="9" height="8" x="4" y="13" fill="#42a5f5" rx="1"></rect><path fill="#424242" d="M45 8h-8a3 3 0 0 0-3-3H14a3 3 0 0 0-3 3H3a3 3 0 0 0-3 3v26a3 3 0 0 0 3 3h8a3 3 0 0 0 3 3h20a3 3 0 0 0 3-3h8a3 3 0 0 0 3-3V11a3 3 0 0 0-3-3ZM3 38a1 1 0 0 1-1-1V11a1 1 0 0 1 1-1h8v14H9a1 1 0 0 0 0 2h2v2H9a1 1 0 0 0 0 2h2v2H9a1 1 0 0 0 0 2h2v4Zm32 2a1 1 0 0 1-1 1H14a1 1 0 0 1-1-1V8a1 1 0 0 1 1-1h20a1 1 0 0 1 1 1Zm11-3a1 1 0 0 1-1 1h-8v-4h6a1 1 0 0 0 0-2h-6v-2h6a1 1 0 0 0 0-2h-6v-2h6a1 1 0 0 0 0-2h-6V10h8a1 1 0 0 1 1 1Z"></path></svg>